<mxfile host="Electron" modified="2024-01-02T22:41:30.937Z" agent="Mozilla/5.0 (Windows NT 10.0; Win64; x64) AppleWebKit/537.36 (KHTML, like Gecko) draw.io/22.1.16 Chrome/120.0.6099.109 Electron/28.1.0 Safari/537.36" etag="8xuu6-RqGqrfRspQ5Ylj" version="22.1.16" type="device">
  <diagram name="Page-1" id="z5UzL9gfqUJMnLtRptsJ">
    <mxGraphModel dx="714" dy="418" grid="0" gridSize="10" guides="1" tooltips="1" connect="1" arrows="1" fold="1" page="1" pageScale="1" pageWidth="850" pageHeight="1100" math="0" shadow="0">
      <root>
        <mxCell id="0" />
        <mxCell id="1" parent="0" />
        <mxCell id="ZMxJaWBHBOaQYRM_QD_V-1" value="" style="group" parent="1" vertex="1" connectable="0">
          <mxGeometry x="350" y="270" width="190" height="120" as="geometry" />
        </mxCell>
        <mxCell id="ZMxJaWBHBOaQYRM_QD_V-2" value="&lt;p style=&quot;margin:0px;margin-top:6px;text-align:center;&quot;&gt;&lt;b&gt;Gateway Microservice&lt;/b&gt;&lt;/p&gt;&lt;p style=&quot;margin:0px;margin-top:6px;text-align:center;&quot;&gt;&lt;b&gt;&lt;br&gt;&lt;/b&gt;&lt;/p&gt;" style="align=left;overflow=fill;html=1;dropTarget=0;whiteSpace=wrap;" parent="ZMxJaWBHBOaQYRM_QD_V-1" vertex="1">
          <mxGeometry width="190" height="120" as="geometry" />
        </mxCell>
        <mxCell id="ZMxJaWBHBOaQYRM_QD_V-3" value="" style="shape=component;jettyWidth=8;jettyHeight=4;" parent="ZMxJaWBHBOaQYRM_QD_V-2" vertex="1">
          <mxGeometry x="1" width="20" height="20" relative="1" as="geometry">
            <mxPoint x="-24" y="4" as="offset" />
          </mxGeometry>
        </mxCell>
        <mxCell id="ZMxJaWBHBOaQYRM_QD_V-4" value="&lt;p style=&quot;margin:0px;margin-top:6px;text-align:center;&quot;&gt;&lt;b&gt;Discovery Service&lt;/b&gt;&lt;/p&gt;" style="align=left;overflow=fill;html=1;dropTarget=0;whiteSpace=wrap;" parent="ZMxJaWBHBOaQYRM_QD_V-1" vertex="1">
          <mxGeometry x="10" y="44.44444444444444" width="170" height="44.44444444444444" as="geometry" />
        </mxCell>
        <mxCell id="ZMxJaWBHBOaQYRM_QD_V-5" value="" style="shape=component;jettyWidth=8;jettyHeight=4;" parent="ZMxJaWBHBOaQYRM_QD_V-4" vertex="1">
          <mxGeometry x="1" width="20" height="20" relative="1" as="geometry">
            <mxPoint x="-24" y="4" as="offset" />
          </mxGeometry>
        </mxCell>
        <mxCell id="ZMxJaWBHBOaQYRM_QD_V-6" value="" style="group" parent="1" vertex="1" connectable="0">
          <mxGeometry x="121" y="80" width="200" height="127" as="geometry" />
        </mxCell>
        <mxCell id="ZMxJaWBHBOaQYRM_QD_V-7" value="&lt;p style=&quot;margin:0px;margin-top:6px;text-align:center;&quot;&gt;&lt;b&gt;Notification Microservice&lt;/b&gt;&lt;/p&gt;" style="align=left;overflow=fill;html=1;dropTarget=0;whiteSpace=wrap;" parent="ZMxJaWBHBOaQYRM_QD_V-6" vertex="1">
          <mxGeometry width="200" height="120" as="geometry" />
        </mxCell>
        <mxCell id="ZMxJaWBHBOaQYRM_QD_V-8" value="" style="shape=component;jettyWidth=8;jettyHeight=4;" parent="ZMxJaWBHBOaQYRM_QD_V-7" vertex="1">
          <mxGeometry x="1" width="20" height="20" relative="1" as="geometry">
            <mxPoint x="-24" y="4" as="offset" />
          </mxGeometry>
        </mxCell>
        <mxCell id="ZMxJaWBHBOaQYRM_QD_V-9" value="&lt;p style=&quot;margin:0px;margin-top:6px;text-align:center;&quot;&gt;&lt;b&gt;Service Finder&lt;/b&gt;&lt;/p&gt;" style="align=left;overflow=fill;html=1;dropTarget=0;whiteSpace=wrap;" parent="ZMxJaWBHBOaQYRM_QD_V-6" vertex="1">
          <mxGeometry x="10" y="44.44" width="180" height="44.44" as="geometry" />
        </mxCell>
        <mxCell id="ZMxJaWBHBOaQYRM_QD_V-10" value="" style="shape=component;jettyWidth=8;jettyHeight=4;" parent="ZMxJaWBHBOaQYRM_QD_V-9" vertex="1">
          <mxGeometry x="1" width="20" height="20" relative="1" as="geometry">
            <mxPoint x="-24" y="4" as="offset" />
          </mxGeometry>
        </mxCell>
        <mxCell id="ZMxJaWBHBOaQYRM_QD_V-11" value="" style="whiteSpace=wrap;html=1;aspect=fixed;" parent="ZMxJaWBHBOaQYRM_QD_V-6" vertex="1">
          <mxGeometry x="136" y="114" width="13" height="13" as="geometry" />
        </mxCell>
        <mxCell id="ZMxJaWBHBOaQYRM_QD_V-15" value="" style="endArrow=none;html=1;rounded=0;exitX=0.5;exitY=0;exitDx=0;exitDy=0;" parent="1" source="ZMxJaWBHBOaQYRM_QD_V-11" edge="1">
          <mxGeometry width="50" height="50" relative="1" as="geometry">
            <mxPoint x="263" y="173" as="sourcePoint" />
            <mxPoint x="263" y="168" as="targetPoint" />
          </mxGeometry>
        </mxCell>
        <mxCell id="ZMxJaWBHBOaQYRM_QD_V-16" value="" style="whiteSpace=wrap;html=1;aspect=fixed;" parent="1" vertex="1">
          <mxGeometry x="425" y="263" width="13" height="13" as="geometry" />
        </mxCell>
        <mxCell id="ZMxJaWBHBOaQYRM_QD_V-17" value="" style="endArrow=none;html=1;rounded=0;entryX=0.5;entryY=1;entryDx=0;entryDy=0;exitX=0.429;exitY=0.021;exitDx=0;exitDy=0;exitPerimeter=0;" parent="1" source="ZMxJaWBHBOaQYRM_QD_V-4" target="ZMxJaWBHBOaQYRM_QD_V-16" edge="1">
          <mxGeometry width="50" height="50" relative="1" as="geometry">
            <mxPoint x="442" y="314" as="sourcePoint" />
            <mxPoint x="466.5" y="282" as="targetPoint" />
          </mxGeometry>
        </mxCell>
        <mxCell id="ZMxJaWBHBOaQYRM_QD_V-18" value="" style="group" parent="1" vertex="1" connectable="0">
          <mxGeometry x="353" y="38" width="200" height="127" as="geometry" />
        </mxCell>
        <mxCell id="ZMxJaWBHBOaQYRM_QD_V-19" value="&lt;p style=&quot;margin:0px;margin-top:6px;text-align:center;&quot;&gt;&lt;b&gt;Tournament Microservice&lt;/b&gt;&lt;/p&gt;" style="align=left;overflow=fill;html=1;dropTarget=0;whiteSpace=wrap;" parent="ZMxJaWBHBOaQYRM_QD_V-18" vertex="1">
          <mxGeometry width="200" height="120" as="geometry" />
        </mxCell>
        <mxCell id="ZMxJaWBHBOaQYRM_QD_V-20" value="" style="shape=component;jettyWidth=8;jettyHeight=4;" parent="ZMxJaWBHBOaQYRM_QD_V-19" vertex="1">
          <mxGeometry x="1" width="20" height="20" relative="1" as="geometry">
            <mxPoint x="-24" y="4" as="offset" />
          </mxGeometry>
        </mxCell>
        <mxCell id="ZMxJaWBHBOaQYRM_QD_V-21" value="&lt;p style=&quot;margin:0px;margin-top:6px;text-align:center;&quot;&gt;&lt;b style=&quot;border-color: var(--border-color);&quot;&gt;Service Finder&lt;/b&gt;&lt;br&gt;&lt;/p&gt;" style="align=left;overflow=fill;html=1;dropTarget=0;whiteSpace=wrap;" parent="ZMxJaWBHBOaQYRM_QD_V-18" vertex="1">
          <mxGeometry x="10" y="44.44" width="180" height="44.44" as="geometry" />
        </mxCell>
        <mxCell id="ZMxJaWBHBOaQYRM_QD_V-22" value="" style="shape=component;jettyWidth=8;jettyHeight=4;" parent="ZMxJaWBHBOaQYRM_QD_V-21" vertex="1">
          <mxGeometry x="1" width="20" height="20" relative="1" as="geometry">
            <mxPoint x="-24" y="4" as="offset" />
          </mxGeometry>
        </mxCell>
        <mxCell id="ZMxJaWBHBOaQYRM_QD_V-23" value="" style="whiteSpace=wrap;html=1;aspect=fixed;" parent="ZMxJaWBHBOaQYRM_QD_V-18" vertex="1">
          <mxGeometry x="136" y="114" width="13" height="13" as="geometry" />
        </mxCell>
        <mxCell id="ZMxJaWBHBOaQYRM_QD_V-24" value="" style="endArrow=none;html=1;rounded=0;exitX=0.5;exitY=0;exitDx=0;exitDy=0;entryX=0.734;entryY=0.989;entryDx=0;entryDy=0;entryPerimeter=0;" parent="ZMxJaWBHBOaQYRM_QD_V-18" source="ZMxJaWBHBOaQYRM_QD_V-23" target="ZMxJaWBHBOaQYRM_QD_V-21" edge="1">
          <mxGeometry width="50" height="50" relative="1" as="geometry">
            <mxPoint x="340" y="119" as="sourcePoint" />
            <mxPoint x="340" y="114" as="targetPoint" />
          </mxGeometry>
        </mxCell>
        <mxCell id="ZMxJaWBHBOaQYRM_QD_V-28" value="" style="ellipse;whiteSpace=wrap;html=1;align=center;aspect=fixed;fillColor=none;strokeColor=none;resizable=0;perimeter=centerPerimeter;rotatable=0;allowArrows=0;points=[];outlineConnect=1;" parent="1" vertex="1">
          <mxGeometry x="606" y="213" width="10" height="10" as="geometry" />
        </mxCell>
        <mxCell id="ZMxJaWBHBOaQYRM_QD_V-29" value="" style="group" parent="1" vertex="1" connectable="0">
          <mxGeometry x="624" y="309.5" width="200" height="127" as="geometry" />
        </mxCell>
        <mxCell id="ZMxJaWBHBOaQYRM_QD_V-30" value="&lt;p style=&quot;margin:0px;margin-top:6px;text-align:center;&quot;&gt;&lt;b&gt;Battle Microservice&lt;/b&gt;&lt;/p&gt;" style="align=left;overflow=fill;html=1;dropTarget=0;whiteSpace=wrap;" parent="ZMxJaWBHBOaQYRM_QD_V-29" vertex="1">
          <mxGeometry y="2" width="200" height="116" as="geometry" />
        </mxCell>
        <mxCell id="ZMxJaWBHBOaQYRM_QD_V-31" value="" style="shape=component;jettyWidth=8;jettyHeight=4;" parent="ZMxJaWBHBOaQYRM_QD_V-30" vertex="1">
          <mxGeometry x="1" width="20" height="20" relative="1" as="geometry">
            <mxPoint x="-24" y="4" as="offset" />
          </mxGeometry>
        </mxCell>
        <mxCell id="ZMxJaWBHBOaQYRM_QD_V-32" value="&lt;p style=&quot;margin:0px;margin-top:6px;text-align:center;&quot;&gt;&lt;b style=&quot;border-color: var(--border-color);&quot;&gt;Service Finder&lt;/b&gt;&lt;br&gt;&lt;/p&gt;" style="align=left;overflow=fill;html=1;dropTarget=0;whiteSpace=wrap;" parent="ZMxJaWBHBOaQYRM_QD_V-29" vertex="1">
          <mxGeometry x="20" y="44.44" width="170" height="44.44" as="geometry" />
        </mxCell>
        <mxCell id="ZMxJaWBHBOaQYRM_QD_V-33" value="" style="shape=component;jettyWidth=8;jettyHeight=4;" parent="ZMxJaWBHBOaQYRM_QD_V-32" vertex="1">
          <mxGeometry x="1" width="20" height="20" relative="1" as="geometry">
            <mxPoint x="-24" y="4" as="offset" />
          </mxGeometry>
        </mxCell>
        <mxCell id="ZMxJaWBHBOaQYRM_QD_V-138" value="" style="endArrow=none;html=1;rounded=0;entryX=0;entryY=0.5;entryDx=0;entryDy=0;exitX=1;exitY=0.5;exitDx=0;exitDy=0;" parent="ZMxJaWBHBOaQYRM_QD_V-29" edge="1">
          <mxGeometry width="50" height="50" relative="1" as="geometry">
            <mxPoint x="4" y="63.329999999999984" as="sourcePoint" />
            <mxPoint x="20" y="63.329999999999984" as="targetPoint" />
          </mxGeometry>
        </mxCell>
        <mxCell id="ZMxJaWBHBOaQYRM_QD_V-35" value="" style="ellipse;whiteSpace=wrap;html=1;align=center;aspect=fixed;fillColor=none;strokeColor=none;resizable=0;perimeter=centerPerimeter;rotatable=0;allowArrows=0;points=[];outlineConnect=1;" parent="1" vertex="1">
          <mxGeometry x="279" y="400" width="10" height="10" as="geometry" />
        </mxCell>
        <mxCell id="ZMxJaWBHBOaQYRM_QD_V-37" value="" style="group" parent="1" vertex="1" connectable="0">
          <mxGeometry x="600" y="137" width="200" height="127" as="geometry" />
        </mxCell>
        <mxCell id="ZMxJaWBHBOaQYRM_QD_V-38" value="&lt;p style=&quot;margin:0px;margin-top:6px;text-align:center;&quot;&gt;&lt;b&gt;Score Computation&lt;/b&gt;&lt;/p&gt;&lt;p style=&quot;margin:0px;margin-top:6px;text-align:center;&quot;&gt;&lt;b&gt;Microservice&lt;/b&gt;&lt;/p&gt;" style="align=left;overflow=fill;html=1;dropTarget=0;whiteSpace=wrap;" parent="ZMxJaWBHBOaQYRM_QD_V-37" vertex="1">
          <mxGeometry width="200" height="120" as="geometry" />
        </mxCell>
        <mxCell id="ZMxJaWBHBOaQYRM_QD_V-39" value="" style="shape=component;jettyWidth=8;jettyHeight=4;" parent="ZMxJaWBHBOaQYRM_QD_V-38" vertex="1">
          <mxGeometry x="1" width="20" height="20" relative="1" as="geometry">
            <mxPoint x="-24" y="4" as="offset" />
          </mxGeometry>
        </mxCell>
        <mxCell id="ZMxJaWBHBOaQYRM_QD_V-40" value="&lt;p style=&quot;margin:0px;margin-top:6px;text-align:center;&quot;&gt;&lt;b style=&quot;border-color: var(--border-color);&quot;&gt;Service Finder&lt;/b&gt;&lt;br&gt;&lt;/p&gt;" style="align=left;overflow=fill;html=1;dropTarget=0;whiteSpace=wrap;" parent="ZMxJaWBHBOaQYRM_QD_V-37" vertex="1">
          <mxGeometry x="19" y="54" width="171" height="44.44" as="geometry" />
        </mxCell>
        <mxCell id="ZMxJaWBHBOaQYRM_QD_V-41" value="" style="shape=component;jettyWidth=8;jettyHeight=4;" parent="ZMxJaWBHBOaQYRM_QD_V-40" vertex="1">
          <mxGeometry x="1" width="20" height="20" relative="1" as="geometry">
            <mxPoint x="-24" y="4" as="offset" />
          </mxGeometry>
        </mxCell>
        <mxCell id="ZMxJaWBHBOaQYRM_QD_V-48" value="" style="ellipse;whiteSpace=wrap;html=1;align=center;aspect=fixed;fillColor=none;strokeColor=none;resizable=0;perimeter=centerPerimeter;rotatable=0;allowArrows=0;points=[];outlineConnect=1;" parent="1" vertex="1">
          <mxGeometry x="518" y="552" width="10" height="10" as="geometry" />
        </mxCell>
        <mxCell id="ZMxJaWBHBOaQYRM_QD_V-51" value="" style="ellipse;whiteSpace=wrap;html=1;align=center;aspect=fixed;fillColor=none;strokeColor=none;resizable=0;perimeter=centerPerimeter;rotatable=0;allowArrows=0;points=[];outlineConnect=1;" parent="1" vertex="1">
          <mxGeometry x="315" y="335" width="10" height="10" as="geometry" />
        </mxCell>
        <mxCell id="ZMxJaWBHBOaQYRM_QD_V-53" value="" style="ellipse;whiteSpace=wrap;html=1;align=center;aspect=fixed;fillColor=none;strokeColor=none;resizable=0;perimeter=centerPerimeter;rotatable=0;allowArrows=0;points=[];outlineConnect=1;" parent="1" vertex="1">
          <mxGeometry x="536" y="272" width="10" height="10" as="geometry" />
        </mxCell>
        <mxCell id="ZMxJaWBHBOaQYRM_QD_V-54" value="" style="group" parent="1" vertex="1" connectable="0">
          <mxGeometry x="69" y="261" width="207" height="127" as="geometry" />
        </mxCell>
        <mxCell id="ZMxJaWBHBOaQYRM_QD_V-55" value="&lt;p style=&quot;margin:0px;margin-top:6px;text-align:center;&quot;&gt;&lt;b&gt;GitHub Integration&lt;/b&gt;&lt;/p&gt;&lt;p style=&quot;margin:0px;margin-top:6px;text-align:center;&quot;&gt;&lt;b&gt;Microservice&lt;/b&gt;&lt;/p&gt;" style="align=left;overflow=fill;html=1;dropTarget=0;whiteSpace=wrap;" parent="ZMxJaWBHBOaQYRM_QD_V-54" vertex="1">
          <mxGeometry width="200" height="120" as="geometry" />
        </mxCell>
        <mxCell id="ZMxJaWBHBOaQYRM_QD_V-56" value="" style="shape=component;jettyWidth=8;jettyHeight=4;" parent="ZMxJaWBHBOaQYRM_QD_V-55" vertex="1">
          <mxGeometry x="1" width="20" height="20" relative="1" as="geometry">
            <mxPoint x="-24" y="4" as="offset" />
          </mxGeometry>
        </mxCell>
        <mxCell id="ZMxJaWBHBOaQYRM_QD_V-57" value="&lt;p style=&quot;margin:0px;margin-top:6px;text-align:center;&quot;&gt;&lt;b&gt;Service Finder&lt;/b&gt;&lt;/p&gt;" style="align=left;overflow=fill;html=1;dropTarget=0;whiteSpace=wrap;" parent="ZMxJaWBHBOaQYRM_QD_V-54" vertex="1">
          <mxGeometry x="10" y="54" width="180" height="44.44" as="geometry" />
        </mxCell>
        <mxCell id="ZMxJaWBHBOaQYRM_QD_V-58" value="" style="shape=component;jettyWidth=8;jettyHeight=4;" parent="ZMxJaWBHBOaQYRM_QD_V-57" vertex="1">
          <mxGeometry x="1" width="20" height="20" relative="1" as="geometry">
            <mxPoint x="-24" y="4" as="offset" />
          </mxGeometry>
        </mxCell>
        <mxCell id="ZMxJaWBHBOaQYRM_QD_V-141" value="" style="whiteSpace=wrap;html=1;aspect=fixed;" parent="ZMxJaWBHBOaQYRM_QD_V-54" vertex="1">
          <mxGeometry x="194" y="33" width="13" height="13" as="geometry" />
        </mxCell>
        <mxCell id="ZMxJaWBHBOaQYRM_QD_V-142" value="" style="endArrow=none;html=1;rounded=0;entryX=0;entryY=0.5;entryDx=0;entryDy=0;" parent="ZMxJaWBHBOaQYRM_QD_V-54" source="ZMxJaWBHBOaQYRM_QD_V-57" target="ZMxJaWBHBOaQYRM_QD_V-141" edge="1">
          <mxGeometry width="50" height="50" relative="1" as="geometry">
            <mxPoint x="221" y="35" as="sourcePoint" />
            <mxPoint x="220" y="9" as="targetPoint" />
          </mxGeometry>
        </mxCell>
        <mxCell id="ZMxJaWBHBOaQYRM_QD_V-66" value="" style="ellipse;whiteSpace=wrap;html=1;align=center;aspect=fixed;fillColor=none;strokeColor=none;resizable=0;perimeter=centerPerimeter;rotatable=0;allowArrows=0;points=[];outlineConnect=1;" parent="1" vertex="1">
          <mxGeometry x="224" y="207" width="10" height="10" as="geometry" />
        </mxCell>
        <mxCell id="ZMxJaWBHBOaQYRM_QD_V-77" value="" style="ellipse;whiteSpace=wrap;html=1;align=center;aspect=fixed;fillColor=none;strokeColor=none;resizable=0;perimeter=centerPerimeter;rotatable=0;allowArrows=0;points=[];outlineConnect=1;" parent="1" vertex="1">
          <mxGeometry x="376" y="180" width="10" height="10" as="geometry" />
        </mxCell>
        <mxCell id="ZMxJaWBHBOaQYRM_QD_V-86" value="" style="ellipse;whiteSpace=wrap;html=1;align=center;aspect=fixed;fillColor=none;strokeColor=none;resizable=0;perimeter=centerPerimeter;rotatable=0;allowArrows=0;points=[];outlineConnect=1;" parent="1" vertex="1">
          <mxGeometry x="516" y="307" width="10" height="10" as="geometry" />
        </mxCell>
        <mxCell id="ZMxJaWBHBOaQYRM_QD_V-87" value="" style="ellipse;whiteSpace=wrap;html=1;align=center;aspect=fixed;fillColor=none;strokeColor=none;resizable=0;perimeter=centerPerimeter;rotatable=0;allowArrows=0;points=[];outlineConnect=1;" parent="1" vertex="1">
          <mxGeometry x="316" y="251" width="10" height="10" as="geometry" />
        </mxCell>
        <mxCell id="ZMxJaWBHBOaQYRM_QD_V-91" value="" style="ellipse;whiteSpace=wrap;html=1;align=center;aspect=fixed;fillColor=none;strokeColor=none;resizable=0;perimeter=centerPerimeter;rotatable=0;allowArrows=0;points=[];outlineConnect=1;" parent="1" vertex="1">
          <mxGeometry x="445" y="368" width="10" height="10" as="geometry" />
        </mxCell>
        <mxCell id="ZMxJaWBHBOaQYRM_QD_V-100" value="" style="ellipse;whiteSpace=wrap;html=1;align=center;aspect=fixed;fillColor=none;strokeColor=none;resizable=0;perimeter=centerPerimeter;rotatable=0;allowArrows=0;points=[];outlineConnect=1;" parent="1" vertex="1">
          <mxGeometry x="425" y="242" width="10" height="10" as="geometry" />
        </mxCell>
        <mxCell id="ZMxJaWBHBOaQYRM_QD_V-102" value="" style="ellipse;whiteSpace=wrap;html=1;align=center;aspect=fixed;fillColor=none;strokeColor=none;resizable=0;perimeter=centerPerimeter;rotatable=0;allowArrows=0;points=[];outlineConnect=1;" parent="1" vertex="1">
          <mxGeometry x="425" y="242" width="10" height="10" as="geometry" />
        </mxCell>
        <mxCell id="ZMxJaWBHBOaQYRM_QD_V-104" value="" style="ellipse;whiteSpace=wrap;html=1;align=center;aspect=fixed;fillColor=none;strokeColor=none;resizable=0;perimeter=centerPerimeter;rotatable=0;allowArrows=0;points=[];outlineConnect=1;" parent="1" vertex="1">
          <mxGeometry x="460" y="273" width="10" height="10" as="geometry" />
        </mxCell>
        <mxCell id="ZMxJaWBHBOaQYRM_QD_V-108" value="" style="ellipse;whiteSpace=wrap;html=1;align=center;aspect=fixed;fillColor=none;strokeColor=none;resizable=0;perimeter=centerPerimeter;rotatable=0;allowArrows=0;points=[];outlineConnect=1;" parent="1" vertex="1">
          <mxGeometry x="549" y="582" width="10" height="10" as="geometry" />
        </mxCell>
        <mxCell id="ZMxJaWBHBOaQYRM_QD_V-112" value="" style="ellipse;whiteSpace=wrap;html=1;align=center;aspect=fixed;fillColor=none;strokeColor=none;resizable=0;perimeter=centerPerimeter;rotatable=0;allowArrows=0;points=[];outlineConnect=1;" parent="1" vertex="1">
          <mxGeometry x="250" y="365" width="10" height="10" as="geometry" />
        </mxCell>
        <mxCell id="ZMxJaWBHBOaQYRM_QD_V-114" value="" style="ellipse;whiteSpace=wrap;html=1;align=center;aspect=fixed;fillColor=none;strokeColor=none;resizable=0;perimeter=centerPerimeter;rotatable=0;allowArrows=0;points=[];outlineConnect=1;" parent="1" vertex="1">
          <mxGeometry x="335" y="263" width="10" height="10" as="geometry" />
        </mxCell>
        <mxCell id="ZMxJaWBHBOaQYRM_QD_V-116" value="" style="ellipse;whiteSpace=wrap;html=1;align=center;aspect=fixed;fillColor=none;strokeColor=none;resizable=0;perimeter=centerPerimeter;rotatable=0;allowArrows=0;points=[];outlineConnect=1;" parent="1" vertex="1">
          <mxGeometry x="431" y="332" width="10" height="10" as="geometry" />
        </mxCell>
        <mxCell id="ZMxJaWBHBOaQYRM_QD_V-119" value="" style="rounded=0;orthogonalLoop=1;jettySize=auto;html=1;endArrow=oval;endFill=0;sketch=0;sourcePerimeterSpacing=0;targetPerimeterSpacing=0;endSize=10;exitX=0.5;exitY=0;exitDx=0;exitDy=0;" parent="1" source="ZMxJaWBHBOaQYRM_QD_V-16" edge="1">
          <mxGeometry relative="1" as="geometry">
            <mxPoint x="409" y="321" as="sourcePoint" />
            <mxPoint x="430" y="228" as="targetPoint" />
          </mxGeometry>
        </mxCell>
        <mxCell id="ZMxJaWBHBOaQYRM_QD_V-120" value="" style="ellipse;whiteSpace=wrap;html=1;align=center;aspect=fixed;fillColor=none;strokeColor=none;resizable=0;perimeter=centerPerimeter;rotatable=0;allowArrows=0;points=[];outlineConnect=1;" parent="1" vertex="1">
          <mxGeometry x="424" y="316" width="10" height="10" as="geometry" />
        </mxCell>
        <mxCell id="ZMxJaWBHBOaQYRM_QD_V-122" value="" style="rounded=0;orthogonalLoop=1;jettySize=auto;html=1;endArrow=halfCircle;endFill=0;endSize=6;strokeWidth=1;sketch=0;fontSize=12;curved=1;exitX=0.5;exitY=1;exitDx=0;exitDy=0;" parent="1" source="ZMxJaWBHBOaQYRM_QD_V-23" edge="1">
          <mxGeometry relative="1" as="geometry">
            <mxPoint x="422" y="307" as="sourcePoint" />
            <mxPoint x="431" y="228" as="targetPoint" />
          </mxGeometry>
        </mxCell>
        <mxCell id="ZMxJaWBHBOaQYRM_QD_V-123" value="" style="ellipse;whiteSpace=wrap;html=1;align=center;aspect=fixed;fillColor=none;strokeColor=none;resizable=0;perimeter=centerPerimeter;rotatable=0;allowArrows=0;points=[];outlineConnect=1;" parent="1" vertex="1">
          <mxGeometry x="397" y="302" width="10" height="10" as="geometry" />
        </mxCell>
        <mxCell id="ZMxJaWBHBOaQYRM_QD_V-124" value="" style="rounded=0;orthogonalLoop=1;jettySize=auto;html=1;endArrow=halfCircle;endFill=0;endSize=6;strokeWidth=1;sketch=0;fontSize=12;curved=1;exitX=1;exitY=0.75;exitDx=0;exitDy=0;" parent="1" source="ZMxJaWBHBOaQYRM_QD_V-11" edge="1">
          <mxGeometry relative="1" as="geometry">
            <mxPoint x="479" y="288" as="sourcePoint" />
            <mxPoint x="428" y="228" as="targetPoint" />
          </mxGeometry>
        </mxCell>
        <mxCell id="ZMxJaWBHBOaQYRM_QD_V-125" value="" style="ellipse;whiteSpace=wrap;html=1;align=center;aspect=fixed;fillColor=none;strokeColor=none;resizable=0;perimeter=centerPerimeter;rotatable=0;allowArrows=0;points=[];outlineConnect=1;" parent="1" vertex="1">
          <mxGeometry x="454" y="283" width="10" height="10" as="geometry" />
        </mxCell>
        <mxCell id="ZMxJaWBHBOaQYRM_QD_V-42" value="" style="whiteSpace=wrap;html=1;aspect=fixed;" parent="1" vertex="1">
          <mxGeometry x="590" y="206.72" width="13" height="13" as="geometry" />
        </mxCell>
        <mxCell id="ZMxJaWBHBOaQYRM_QD_V-43" value="" style="endArrow=none;html=1;rounded=0;entryX=0;entryY=0.5;entryDx=0;entryDy=0;exitX=1;exitY=0.5;exitDx=0;exitDy=0;" parent="1" source="ZMxJaWBHBOaQYRM_QD_V-42" target="ZMxJaWBHBOaQYRM_QD_V-40" edge="1">
          <mxGeometry width="50" height="50" relative="1" as="geometry">
            <mxPoint x="767" y="144" as="sourcePoint" />
            <mxPoint x="739" y="231" as="targetPoint" />
          </mxGeometry>
        </mxCell>
        <mxCell id="ZMxJaWBHBOaQYRM_QD_V-128" value="" style="rounded=0;orthogonalLoop=1;jettySize=auto;html=1;endArrow=halfCircle;endFill=0;endSize=6;strokeWidth=1;sketch=0;fontSize=12;curved=1;exitX=0;exitY=0.5;exitDx=0;exitDy=0;" parent="1" source="ZMxJaWBHBOaQYRM_QD_V-42" edge="1">
          <mxGeometry relative="1" as="geometry">
            <mxPoint x="599" y="255" as="sourcePoint" />
            <mxPoint x="432" y="228" as="targetPoint" />
          </mxGeometry>
        </mxCell>
        <mxCell id="ZMxJaWBHBOaQYRM_QD_V-129" value="" style="ellipse;whiteSpace=wrap;html=1;align=center;aspect=fixed;fillColor=none;strokeColor=none;resizable=0;perimeter=centerPerimeter;rotatable=0;allowArrows=0;points=[];outlineConnect=1;" parent="1" vertex="1">
          <mxGeometry x="574" y="250" width="10" height="10" as="geometry" />
        </mxCell>
        <mxCell id="ZMxJaWBHBOaQYRM_QD_V-130" value="" style="whiteSpace=wrap;html=1;aspect=fixed;" parent="1" vertex="1">
          <mxGeometry x="616" y="365" width="13" height="13" as="geometry" />
        </mxCell>
        <mxCell id="ZMxJaWBHBOaQYRM_QD_V-139" value="" style="rounded=0;orthogonalLoop=1;jettySize=auto;html=1;endArrow=halfCircle;endFill=0;endSize=6;strokeWidth=1;sketch=0;fontSize=12;curved=1;exitX=0.25;exitY=0;exitDx=0;exitDy=0;" parent="1" source="ZMxJaWBHBOaQYRM_QD_V-130" edge="1">
          <mxGeometry relative="1" as="geometry">
            <mxPoint x="599" y="311" as="sourcePoint" />
            <mxPoint x="431" y="230" as="targetPoint" />
            <Array as="points">
              <mxPoint x="596" y="238" />
            </Array>
          </mxGeometry>
        </mxCell>
        <mxCell id="ZMxJaWBHBOaQYRM_QD_V-140" value="" style="ellipse;whiteSpace=wrap;html=1;align=center;aspect=fixed;fillColor=none;strokeColor=none;resizable=0;perimeter=centerPerimeter;rotatable=0;allowArrows=0;points=[];outlineConnect=1;" parent="1" vertex="1">
          <mxGeometry x="574" y="306" width="10" height="10" as="geometry" />
        </mxCell>
        <mxCell id="ZMxJaWBHBOaQYRM_QD_V-143" value="" style="rounded=0;orthogonalLoop=1;jettySize=auto;html=1;endArrow=halfCircle;endFill=0;endSize=6;strokeWidth=1;sketch=0;fontSize=12;curved=1;" parent="1" source="ZMxJaWBHBOaQYRM_QD_V-141" edge="1">
          <mxGeometry relative="1" as="geometry">
            <mxPoint x="338" y="247" as="sourcePoint" />
            <mxPoint x="428" y="229" as="targetPoint" />
            <Array as="points">
              <mxPoint x="339" y="237" />
            </Array>
          </mxGeometry>
        </mxCell>
        <mxCell id="ZMxJaWBHBOaQYRM_QD_V-144" value="" style="ellipse;whiteSpace=wrap;html=1;align=center;aspect=fixed;fillColor=none;strokeColor=none;resizable=0;perimeter=centerPerimeter;rotatable=0;allowArrows=0;points=[];outlineConnect=1;" parent="1" vertex="1">
          <mxGeometry x="313" y="242" width="10" height="10" as="geometry" />
        </mxCell>
        <mxCell id="ZMxJaWBHBOaQYRM_QD_V-145" value="&lt;font style=&quot;font-size: 9px;&quot; face=&quot;Verdana&quot;&gt;DiscoveryServiceI&lt;/font&gt;" style="text;html=1;align=center;verticalAlign=middle;resizable=0;points=[];autosize=1;strokeColor=none;fillColor=none;" parent="1" vertex="1">
          <mxGeometry x="355" y="191" width="99" height="26" as="geometry" />
        </mxCell>
        <mxCell id="2aKaR1T6wJwUdunVGJsH-1" value="" style="group" vertex="1" connectable="0" parent="1">
          <mxGeometry x="230" y="410" width="200" height="127" as="geometry" />
        </mxCell>
        <mxCell id="2aKaR1T6wJwUdunVGJsH-2" value="&lt;p style=&quot;margin:0px;margin-top:6px;text-align:center;&quot;&gt;&lt;b&gt;User Management&amp;nbsp;&lt;/b&gt;&lt;/p&gt;&lt;p style=&quot;margin:0px;margin-top:6px;text-align:center;&quot;&gt;&lt;b&gt;Microservice&lt;/b&gt;&lt;/p&gt;" style="align=left;overflow=fill;html=1;dropTarget=0;whiteSpace=wrap;" vertex="1" parent="2aKaR1T6wJwUdunVGJsH-1">
          <mxGeometry y="2" width="200" height="116" as="geometry" />
        </mxCell>
        <mxCell id="2aKaR1T6wJwUdunVGJsH-3" value="" style="shape=component;jettyWidth=8;jettyHeight=4;" vertex="1" parent="2aKaR1T6wJwUdunVGJsH-2">
          <mxGeometry x="1" width="20" height="20" relative="1" as="geometry">
            <mxPoint x="-24" y="4" as="offset" />
          </mxGeometry>
        </mxCell>
        <mxCell id="2aKaR1T6wJwUdunVGJsH-4" value="&lt;p style=&quot;margin:0px;margin-top:6px;text-align:center;&quot;&gt;&lt;b style=&quot;border-color: var(--border-color);&quot;&gt;Service Finder&lt;/b&gt;&lt;br&gt;&lt;/p&gt;" style="align=left;overflow=fill;html=1;dropTarget=0;whiteSpace=wrap;" vertex="1" parent="2aKaR1T6wJwUdunVGJsH-1">
          <mxGeometry x="20" y="58" width="170" height="44.44" as="geometry" />
        </mxCell>
        <mxCell id="2aKaR1T6wJwUdunVGJsH-5" value="" style="shape=component;jettyWidth=8;jettyHeight=4;" vertex="1" parent="2aKaR1T6wJwUdunVGJsH-4">
          <mxGeometry x="1" width="20" height="20" relative="1" as="geometry">
            <mxPoint x="-24" y="4" as="offset" />
          </mxGeometry>
        </mxCell>
        <mxCell id="2aKaR1T6wJwUdunVGJsH-6" value="" style="endArrow=none;html=1;rounded=0;entryX=0.093;entryY=-0.008;entryDx=0;entryDy=0;exitX=1;exitY=0.5;exitDx=0;exitDy=0;entryPerimeter=0;" edge="1" parent="2aKaR1T6wJwUdunVGJsH-1" source="2aKaR1T6wJwUdunVGJsH-7" target="2aKaR1T6wJwUdunVGJsH-4">
          <mxGeometry width="50" height="50" relative="1" as="geometry">
            <mxPoint x="4" y="63.329999999999984" as="sourcePoint" />
            <mxPoint x="20" y="63.329999999999984" as="targetPoint" />
          </mxGeometry>
        </mxCell>
        <mxCell id="2aKaR1T6wJwUdunVGJsH-7" value="" style="whiteSpace=wrap;html=1;aspect=fixed;direction=south;" vertex="1" parent="2aKaR1T6wJwUdunVGJsH-1">
          <mxGeometry x="32" y="-6" width="13" height="13" as="geometry" />
        </mxCell>
        <mxCell id="2aKaR1T6wJwUdunVGJsH-8" value="" style="rounded=0;orthogonalLoop=1;jettySize=auto;html=1;endArrow=halfCircle;endFill=0;endSize=6;strokeWidth=1;sketch=0;fontSize=12;curved=1;exitX=0;exitY=0.5;exitDx=0;exitDy=0;" edge="1" parent="1" source="2aKaR1T6wJwUdunVGJsH-7">
          <mxGeometry relative="1" as="geometry">
            <mxPoint x="343" y="362" as="sourcePoint" />
            <mxPoint x="429" y="230" as="targetPoint" />
            <Array as="points">
              <mxPoint x="293" y="262" />
            </Array>
          </mxGeometry>
        </mxCell>
        <mxCell id="2aKaR1T6wJwUdunVGJsH-9" value="" style="ellipse;whiteSpace=wrap;html=1;align=center;aspect=fixed;fillColor=none;strokeColor=none;resizable=0;perimeter=centerPerimeter;rotatable=0;allowArrows=0;points=[];outlineConnect=1;" vertex="1" parent="1">
          <mxGeometry x="318" y="357" width="10" height="10" as="geometry" />
        </mxCell>
      </root>
    </mxGraphModel>
  </diagram>
</mxfile>
